<?xml version="1.0" standalone="no"?>
<!DOCTYPE svg PUBLIC "-//W3C//DTD SVG 20010904//EN"
 "http://www.w3.org/TR/2001/REC-SVG-20010904/DTD/svg10.dtd">
<svg version="1.0" xmlns="http://www.w3.org/2000/svg"
 width="340.000000pt" height="340.000000pt" viewBox="0 0 340.000000 340.000000"
 preserveAspectRatio="xMidYMid meet">
<metadata>
Created by potrace 1.11, written by Peter Selinger 2001-2013
</metadata>
<g transform="translate(0.000000,340.000000) scale(0.100000,-0.100000)"
fill="#000000" stroke="none">
<path d="M2555 3377 c-37 -22 -68 -65 -116 -166 -25 -51 -22 -106 8 -148 10
-14 29 -47 43 -72 41 -75 75 -91 192 -91 67 0 108 5 127 15 29 15 81 70 81 85
0 5 14 31 30 57 41 65 41 123 0 184 -16 24 -30 49 -30 56 0 22 -61 82 -93 92
-18 5 -71 10 -118 10 -69 0 -92 -4 -124 -22z m217 -86 c5 0 17 -21 29 -45 11
-25 27 -50 35 -57 21 -17 17 -56 -11 -97 -14 -20 -25 -42 -25 -48 0 -6 -8 -19
-19 -28 -15 -14 -35 -16 -102 -14 l-83 3 -27 50 c-15 28 -33 61 -40 73 -11 20
-10 28 3 50 10 15 27 45 39 67 12 22 26 43 31 46 8 5 143 5 170 0z"/>
<path d="M708 3071 c-18 -10 -42 -32 -53 -49 -70 -110 -79 -128 -83 -176 -3
-43 0 -57 22 -89 15 -21 32 -53 40 -71 13 -31 61 -79 88 -88 10 -4 8 -14 -5
-44 -14 -31 -29 -45 -67 -62 -111 -51 -206 -175 -230 -299 -7 -42 -18 -60 -58
-100 -135 -136 -116 -354 40 -455 27 -18 51 -41 53 -52 3 -12 43 -280 90 -596
46 -316 89 -595 95 -619 41 -167 188 -310 365 -356 88 -22 1302 -23 1389 0
177 46 321 185 364 350 6 22 49 301 96 620 47 319 88 589 91 601 2 11 26 34
53 52 156 101 175 319 40 455 -40 40 -51 58 -58 100 -23 124 -119 248 -229
298 -40 19 -52 32 -80 85 -41 79 -113 146 -198 187 -54 25 -84 32 -153 35 -83
4 -86 6 -128 44 -117 107 -317 137 -453 68 -37 -19 -41 -20 -72 -4 -145 75
-338 47 -462 -67 -30 -27 -51 -39 -72 -39 -29 0 -31 2 -35 49 -3 29 -14 62
-28 81 -13 18 -33 52 -44 74 -33 64 -79 84 -192 84 -69 0 -101 -4 -126 -17z
m215 -90 c4 0 17 -20 28 -43 11 -24 27 -55 36 -70 19 -29 19 -26 -35 -123
l-27 -50 -90 0 -90 0 -23 45 c-13 25 -30 52 -38 61 -21 23 -17 58 11 91 14 16
25 36 25 44 0 8 8 22 19 33 15 15 32 18 97 16 44 -1 83 -3 87 -4z m712 -170
l65 -32 67 33 c60 29 77 33 148 33 99 0 168 -30 237 -103 l46 -49 79 5 c64 3
89 0 138 -19 79 -29 154 -104 182 -179 19 -52 24 -57 92 -91 106 -53 164 -118
186 -209 l6 -25 -1181 0 -1181 0 6 25 c22 91 80 156 186 209 63 31 74 41 85
75 8 21 23 53 35 72 18 30 26 34 62 34 53 0 101 29 129 76 l21 36 80 -4 79 -5
41 44 c109 117 251 143 392 74z m1297 -763 c110 -65 129 -201 41 -299 -19 -21
-49 -42 -66 -48 -20 -6 -455 -11 -1202 -13 -943 -2 -1177 0 -1207 10 -20 7
-52 30 -71 51 -103 114 -57 276 91 321 15 5 554 8 1197 7 l1170 -2 47 -27z
m-2029 -530 c4 -35 12 -116 18 -181 14 -135 28 -165 73 -153 15 4 30 16 34 27
7 18 -4 166 -23 322 l-6 47 196 0 195 0 0 -102 c0 -57 7 -337 15 -623 8 -286
15 -573 15 -637 l0 -118 -134 0 -134 0 -5 33 c-3 17 -25 228 -48 467 -27 285
-47 443 -56 458 -17 28 -68 30 -82 3 -8 -13 2 -149 34 -467 25 -247 47 -457
49 -467 4 -16 0 -18 -22 -12 -101 24 -207 112 -255 213 -27 58 -37 115 -113
625 -46 309 -86 577 -89 595 l-6 32 169 0 169 0 6 -62z m1003 -125 c-3 -104
-11 -381 -16 -618 -6 -236 -13 -485 -16 -553 l-6 -122 -168 0 -168 0 -6 103
c-3 56 -10 307 -16 557 -6 250 -13 537 -17 638 l-6 182 213 0 213 0 -7 -187z
m489 145 c-3 -24 -21 -200 -40 -392 -32 -325 -34 -351 -18 -368 22 -25 60 -23
76 5 10 14 27 152 51 402 20 209 36 383 36 388 0 4 77 7 170 7 l170 0 -5 -22
c-2 -13 -16 -104 -31 -203 -105 -731 -144 -969 -169 -1023 -21 -45 -28 -54
-36 -42 -9 12 -10 11 -5 -4 8 -25 -39 -77 -63 -69 -12 3 -13 2 -3 -4 10 -7 9
-13 -5 -25 -22 -19 -98 -58 -135 -69 -35 -10 -35 -24 -3 271 21 198 22 228 9
248 -8 12 -25 22 -38 22 -46 0 -52 -22 -75 -255 -12 -121 -24 -239 -27 -262
l-6 -43 -134 0 -134 0 0 113 c0 61 7 346 15 632 8 286 15 568 15 628 l0 107
196 0 195 0 -6 -42z"/>
<path d="M1186 2534 c-11 -11 -16 -34 -16 -75 0 -76 12 -99 50 -99 38 0 50 23
50 99 0 63 -15 91 -50 91 -10 0 -26 -7 -34 -16z"/>
<path d="M2146 2534 c-11 -11 -16 -34 -16 -75 0 -76 12 -99 50 -99 38 0 50 23
50 99 0 63 -15 91 -50 91 -10 0 -26 -7 -34 -16z"/>
<path d="M1535 2436 c-20 -30 -10 -54 38 -90 73 -55 181 -55 254 0 48 36 58
60 38 90 -19 29 -55 31 -80 4 -27 -30 -79 -44 -119 -30 -18 6 -42 20 -51 30
-25 27 -61 25 -80 -4z"/>
<path d="M2668 1563 c28 -2 76 -2 105 0 28 2 5 3 -53 3 -58 0 -81 -1 -52 -3z"/>
<path d="M2766 1483 c-6 -14 -5 -15 5 -6 7 7 10 15 7 18 -3 3 -9 -2 -12 -12z"/>
<path d="M2771 1264 c0 -11 3 -14 6 -6 3 7 2 16 -1 19 -3 4 -6 -2 -5 -13z"/>
<path d="M2451 934 c0 -11 3 -14 6 -6 3 7 2 16 -1 19 -3 4 -6 -2 -5 -13z"/>
<path d="M2445 830 c3 -5 8 -10 11 -10 2 0 4 5 4 10 0 6 -5 10 -11 10 -5 0 -7
-4 -4 -10z"/>
<path d="M2701 794 c0 -11 3 -14 6 -6 3 7 2 16 -1 19 -3 4 -6 -2 -5 -13z"/>
<path d="M2692 740 c0 -14 2 -19 5 -12 2 6 2 18 0 25 -3 6 -5 1 -5 -13z"/>
<path d="M2372 720 c0 -19 2 -27 5 -17 2 9 2 25 0 35 -3 9 -5 1 -5 -18z"/>
<path d="M2410 541 c0 -6 4 -13 10 -16 6 -3 7 1 4 9 -7 18 -14 21 -14 7z"/>
<path d="M2651 454 c0 -11 3 -14 6 -6 3 7 2 16 -1 19 -3 4 -6 -2 -5 -13z"/>
<path d="M2402 420 c0 -19 2 -27 5 -17 2 9 2 25 0 35 -3 9 -5 1 -5 -18z"/>
<path d="M2636 407 c3 -10 9 -15 12 -12 3 3 0 11 -7 18 -10 9 -11 8 -5 -6z"/>
<path d="M2607 357 c-3 -8 -2 -20 3 -26 5 -9 8 -4 8 13 0 29 -3 32 -11 13z"/>
<path d="M2391 294 c0 -11 3 -14 6 -6 3 7 2 16 -1 19 -3 4 -6 -2 -5 -13z"/>
<path d="M2526 252 c-3 -5 1 -9 9 -9 8 0 12 4 9 9 -3 4 -7 8 -9 8 -2 0 -6 -4
-9 -8z"/>
<path d="M2411 204 c0 -11 3 -14 6 -6 3 7 2 16 -1 19 -3 4 -6 -2 -5 -13z"/>
<path d="M2380 185 c0 -8 4 -15 10 -15 5 0 7 7 4 15 -4 8 -8 15 -10 15 -2 0
-4 -7 -4 -15z"/>
<path d="M2469 198 c-5 -18 -6 -38 -1 -34 7 8 12 36 6 36 -2 0 -4 -1 -5 -2z"/>
<path d="M2378 133 c7 -3 16 -2 19 1 4 3 -2 6 -13 5 -11 0 -14 -3 -6 -6z"/>
</g>
</svg>
